<?xml version="1.0" encoding="UTF-8"?>
<svg version="1.1" xmlns="http://www.w3.org/2000/svg" width="689" height="525">
<path d="M0 0 C13.2 0 26.4 0 40 0 C41.27731795 3.83195384 42.37042719 7.30145272 43.22084045 11.1945343 C43.44091263 12.19420731 43.6609848 13.19388031 43.88772583 14.22384644 C44.12208344 15.30409088 44.35644104 16.38433533 44.59790039 17.49731445 C44.85017899 18.64750565 45.10245758 19.79769684 45.36238098 20.98274231 C45.90834865 23.47382618 46.45282897 25.96523639 46.99598885 28.45693398 C47.85443162 32.39435786 48.71689481 36.33088001 49.58067322 40.26713562 C51.72380119 50.03726472 53.85976152 59.80895923 55.99530029 69.58074951 C57.65816136 77.18913852 59.32276941 84.79713708 60.99239534 92.40404481 C61.71060648 95.67705925 62.42723077 98.95040518 63.14030647 102.22454262 C63.93408567 105.86697564 64.73229625 109.50841092 65.53149414 113.1496582 C65.88606689 114.7852066 65.88606689 114.7852066 66.24780273 116.45379639 C66.46505508 117.43937027 66.68230743 118.42494415 66.90614319 119.44038391 C67.0943567 120.30184178 67.28257021 121.16329966 67.47648716 122.05086231 C67.8232904 123.98978531 67.8232904 123.98978531 69 125 C69.48740158 123.15648453 69.48740158 123.15648453 69.98464966 121.27572632 C73.07228222 109.59772292 76.16082313 97.91996007 79.25021553 86.2424221 C80.83782768 80.24132199 82.42513823 74.24014248 84.01171875 68.23876953 C85.54767441 62.42893698 87.08447552 56.61932863 88.62182236 50.80986404 C89.20328732 48.61200273 89.78446597 46.41406565 90.36532974 44.21604538 C92.23496511 37.14172848 94.11229181 30.06951634 96 23 C96.2797744 21.95094734 96.5595488 20.90189468 96.84780121 19.82105255 C97.67559429 16.72416669 98.50853914 13.62871585 99.34326172 10.53369141 C99.72245852 9.11349229 99.72245852 9.11349229 100.10931587 7.66460228 C100.46015645 6.37047385 100.46015645 6.37047385 100.81808472 5.05020142 C101.12529859 3.90906859 101.12529859 3.90906859 101.4387188 2.74488258 C102 1 102 1 103 0 C104.47354348 -0.09304018 105.95150591 -0.11746265 107.42797852 -0.11352539 C108.36887833 -0.11344986 109.30977814 -0.11337433 110.27919006 -0.11329651 C111.30209641 -0.10813522 112.32500275 -0.10297394 113.37890625 -0.09765625 C114.42070541 -0.0962413 115.46250458 -0.09482635 116.53587341 -0.09336853 C119.87811094 -0.0877508 123.22028257 -0.0751953 126.5625 -0.0625 C128.82226466 -0.05748728 131.08203037 -0.05292398 133.34179688 -0.04882812 C138.89455391 -0.03777561 144.44727225 -0.02102024 150 0 C152.71020867 10.66619083 155.41841441 21.33288926 158.125 32 C158.42770939 33.19302168 158.42770939 33.19302168 158.73653412 34.41014481 C166.56232175 65.25574884 174.31148686 96.11987343 182 127 C182.33 127 182.66 127 183 127 C183.13822898 126.3697781 183.27645796 125.7395562 183.41887569 125.09023666 C186.78167469 109.7585522 190.14511706 94.42700904 193.50927639 79.09562302 C195.13613924 71.68149381 196.76278396 64.26731687 198.38891602 56.85302734 C199.80618185 50.39105833 201.2238561 43.92917907 202.64202172 37.46740746 C203.39297427 34.04567689 204.14372164 30.62390159 204.89398003 27.20201874 C205.73133892 23.3829123 206.56960959 19.56400632 207.40795898 15.74511719 C207.65683365 14.60935745 207.90570831 13.47359772 208.16212463 12.30342102 C208.39068146 11.26298141 208.61923828 10.22254181 208.85472107 9.15057373 C209.15199931 7.79553804 209.15199931 7.79553804 209.45528316 6.4131279 C209.93944838 4.26824728 210.46670123 2.13319508 211 0 C224.2 0 237.4 0 251 0 C249.87501312 8.99989502 249.87501312 8.99989502 249.1007843 12.14035034 C248.92614466 12.85834147 248.75150501 13.57633261 248.57157326 14.31608105 C248.38206785 15.07528504 248.19256245 15.83448904 247.99731445 16.61669922 C247.79506948 17.44259458 247.59282452 18.26848993 247.38445091 19.11941242 C246.71496717 21.84889907 246.03911021 24.57676567 245.36328125 27.3046875 C244.88627837 29.24463124 244.40970995 31.18468184 243.93354797 33.12483215 C242.92212001 37.24257191 241.90800448 41.35963613 240.8916626 45.47616577 C239.31001813 51.88254787 237.73407775 58.29032287 236.15966797 64.69848633 C235.76928408 66.28742313 235.76928408 66.28742313 235.37101364 67.90845966 C234.84634965 70.04405302 234.321713 72.17965309 233.79710388 74.31525993 C233.01191073 77.51093741 232.22614892 80.70647466 231.44030762 83.9019928 C228.40018307 96.26854682 225.37880565 108.63937708 222.39453125 121.01953125 C222.14261363 122.06457825 222.14261363 122.06457825 221.88560677 123.1307373 C220.21926328 130.04623555 218.55880065 136.96314202 216.8996582 143.88037109 C216.63581833 144.97846603 216.37197845 146.07656097 216.10014343 147.20793152 C215.61901853 149.21081902 215.13903373 151.21398092 214.66047668 153.21748352 C214.45363754 154.07859238 214.2467984 154.93970123 214.03369141 155.8269043 C213.85657623 156.56708298 213.67946106 157.30726166 213.49697876 158.06987 C213.06872675 159.73308406 212.54310964 161.37067108 212 163 C212.96878586 163.23400513 213.93757172 163.46801025 214.93571472 163.70910645 C224.73227076 166.10122493 234.39756621 168.80665284 244.05078125 171.71875 C245.57265644 172.17484011 247.09463214 172.63059499 248.61669922 173.08604431 C251.84459569 174.05265625 255.07181801 175.02147353 258.29849243 175.99215698 C263.37461683 177.51921028 268.45219764 179.04137902 273.5300293 180.56274414 C278.76891481 182.13262525 284.00769004 183.70286995 289.2459259 185.2749176 C305.78068219 190.2371466 322.32230823 195.17623432 338.86532593 200.11083984 C345.2896856 202.02720591 351.71364364 203.9449175 358.13763428 205.86252022 C362.75838354 207.24181185 367.37919795 208.62088523 372 210 C372 213.85287296 371.87435281 214.71988258 370.09375 217.8359375 C369.68302246 218.56441895 369.27229492 219.29290039 368.84912109 220.04345703 C368.40391113 220.81286621 367.95870117 221.58227539 367.5 222.375 C367.05092285 223.16632324 366.6018457 223.95764648 366.13916016 224.77294922 C364.76724984 227.18652208 363.38413126 229.59342001 362 232 C361.18407531 233.4318244 360.36892268 234.86408915 359.5546875 236.296875 C357.71186027 239.53629512 355.85912573 242.76989888 354 246 C345.9995662 244.40414714 338.3314287 241.98496348 330.57421875 239.484375 C329.15856103 239.0312911 327.74278672 238.57857138 326.3269043 238.12619019 C322.55620995 236.92042037 318.78704699 235.70992987 315.01815414 234.49854279 C311.1241254 233.24788656 307.22865143 232.00174999 303.33325195 230.75537109 C297.88573846 229.01203331 292.43860118 227.2675309 286.99200726 225.52132225 C275.50547281 221.83887917 264.01238081 218.17724513 252.51651001 214.52404785 C248.87473291 213.36670593 245.23326757 212.2083849 241.59179688 211.05007935 C238.39461031 210.03313749 235.19731321 209.01654357 232 208 C231.67 208.33 231.34 208.66 231 209 C276.045 254.045 276.045 254.045 322 300 C314.49269518 313.76339218 306.97003348 327.49895533 299 341 C284.85711939 337.63266338 270.90904986 333.61900925 256.9375 329.609375 C254.44936657 328.89741183 251.96116554 328.18568485 249.47290039 327.47418213 C243.6363185 325.80464263 237.80041369 324.13275672 231.9648447 322.4596808 C225.30982831 320.55181265 218.6539323 318.6470221 211.99796867 316.74246168 C198.3310129 312.83167874 184.66513997 308.91712278 171 305 C171.78463623 305.78391113 172.56927246 306.56782227 173.37768555 307.37548828 C174.90973035 308.9088168 176.43804873 310.44591787 177.95703125 311.9921875 C181.68671624 315.77683627 185.5067065 319.35823885 189.53515625 322.8203125 C192.91984768 325.81343107 196.20555529 328.90820977 199.5 332 C205.17446008 337.3333503 205.17446008 337.3333503 211 342.5 C214.93957646 345.88665344 218.7113489 349.44681739 222.5 353 C226.91356317 357.13872197 231.34508584 361.23018217 235.9296875 365.1796875 C238.74641346 367.65628051 241.49753297 370.20257635 244.25 372.75 C244.80179932 373.26054932 245.35359863 373.77109863 245.92211914 374.29711914 C247.6150898 375.86437537 249.307561 377.43216968 251 379 C253.18490402 381.02366578 255.37256965 383.04427545 257.5625 385.0625 C258.51253906 385.94035156 259.46257812 386.81820313 260.44140625 387.72265625 C262.56305377 389.6110845 264.69463337 391.34556042 267 393 C266.40253762 397.43903157 264.7236468 400.63936046 262.5078125 404.5078125 C262.16120575 405.115112 261.814599 405.7224115 261.45748901 406.34811401 C260.72616317 407.62577205 259.99140348 408.90147001 259.25341797 410.17529297 C258.12735164 412.12093679 257.01411994 414.07350641 255.90234375 416.02734375 C249.93152744 426.42826635 249.93152744 426.42826635 247 429 C240.77047611 423.3890104 234.64141417 417.71706636 228.75 411.75 C225.63339757 408.59368298 222.51251069 405.49357288 219.125 402.625 C215.20167668 399.29263751 211.61791333 395.65584689 208 392 C202.65534914 386.58504999 202.65534914 386.58504999 197 381.5 C192.44141051 377.64877784 188.32897829 373.35336869 184.13500977 369.11547852 C180.58542182 365.54301767 176.96842121 362.15395599 173.12109375 358.90234375 C169.52185634 355.67429841 166.17331789 352.1922629 162.77490234 348.75537109 C159.9524361 345.913276 157.12416268 343.15009878 154.0625 340.5625 C150.15727088 337.25424858 146.59741961 333.63467658 143 330 C134.52984288 321.38090538 134.52984288 321.38090538 125 314 C124.2265625 314.78503906 123.453125 315.57007813 122.65625 316.37890625 C117.57512154 321.51240061 112.49721402 326.54386359 106.9921875 331.2265625 C103.65542231 334.19693779 100.57221824 337.42081411 97.43359375 340.59765625 C95.36757635 342.63714373 93.26994451 344.555078 91.0625 346.4375 C87.71074904 349.30172355 84.59443583 352.36334093 81.5 355.5 C77.8315278 359.2184599 74.06850774 362.73668192 70.09375 366.125 C66.95479653 368.93600311 64.02649319 371.95267797 61.06860352 374.95092773 C57.84633552 378.20000607 54.50659355 381.22443863 51.02734375 384.19140625 C48.58571366 386.36958492 46.29951968 388.67248008 44 391 C41.10408042 393.93118191 38.19757429 396.76403174 35.0625 399.4375 C31.19619176 402.74143613 27.6436537 406.32695602 24.07543945 409.9440918 C20.79635098 413.25055829 17.39965311 416.34234146 13.859375 419.36328125 C10.75863008 422.09271848 7.87902091 425.04000663 5 428 C1.03209924 426.67736641 0.61182281 425.09444421 -1.43359375 421.49609375 C-2.08263672 420.36236328 -2.73167969 419.22863281 -3.40039062 418.06054688 C-4.07944956 416.85287722 -4.75848586 415.64519484 -5.4375 414.4375 C-6.11184305 413.25671157 -6.78696522 412.07636772 -7.46289062 410.89648438 C-10.81429143 405.00745204 -14.05133403 399.10094826 -17 393 C-13.60029853 389.52314218 -10.1894275 386.10911312 -6.5 382.9375 C-2.3948976 379.40165985 1.5499991 375.70669323 5.5 372 C9.91342592 367.8611371 14.3450927 363.76981191 18.9296875 359.8203125 C23.47810412 355.82113865 27.88594391 351.66233292 32.32861328 347.54638672 C38.49311365 341.84291822 44.68507875 336.16951003 50.9375 330.5625 C54.84598486 327.05617435 58.71030899 323.50531227 62.5625 319.9375 C67.65067212 315.22515028 72.79538446 310.58376421 78 306 C65.41872295 308.86555426 52.95688255 312.08852172 40.50390625 315.46484375 C38.57598228 315.98545544 36.64799735 316.50584148 34.71995544 317.02601624 C30.70665405 318.10936171 26.69382885 319.19444621 22.68139648 320.28100586 C17.59157001 321.65931843 12.50095999 323.03470801 7.41003513 324.40895748 C2.48273607 325.73913875 -2.44420639 327.0706385 -7.37109375 328.40234375 C-8.28286314 328.64871016 -9.19463253 328.89507656 -10.1340313 329.14890862 C-12.77500947 329.86281485 -15.41575069 330.57759001 -18.05639648 331.29272461 C-18.88882087 331.51782683 -19.72124525 331.74292906 -20.57889462 331.97485256 C-24.78500489 333.11538266 -28.98529847 334.27343009 -33.17874146 335.45974731 C-34.00725396 335.6933751 -34.83576647 335.92700289 -35.68938541 336.1677103 C-37.25621194 336.61075071 -38.8221125 337.05708385 -40.3869009 337.50726986 C-43.35496673 338.34617199 -45.89879514 339 -49 339 C-49.38220703 338.31075439 -49.76441406 337.62150879 -50.15820312 336.91137695 C-51.93574291 333.71004063 -53.71747279 330.51106194 -55.5 327.3125 C-56.13623291 326.16813477 -56.77246582 325.02376953 -57.42797852 323.84472656 C-61.3263819 316.86994101 -65.34637757 310.05953524 -69.83984375 303.453125 C-71 301 -71 301 -71.14453125 298.609375 C-69.32433848 294.45958397 -66.09974109 291.97217886 -62.75 289 C-54.69348767 281.65381874 -46.96295193 274.03578456 -39.30957031 266.27148438 C-35.67560399 262.60248174 -32.05784683 258.98283054 -28.12890625 255.62890625 C-22.43999389 250.75035181 -17.26122015 245.32942115 -12 240 C-0.17537654 228.02209439 -0.17537654 228.02209439 6.13671875 222.63623047 C9.5838395 219.60915981 12.77826051 216.32553447 16 213.0625 C17.2485169 211.8024736 18.49722762 210.54263925 19.74609375 209.28295898 C20.36025146 208.66331772 20.97440918 208.04367645 21.60717773 207.40525818 C22.29662476 206.70965538 22.29662476 206.70965538 23 206 C5.33110433 211.3932078 -12.29272417 216.9197713 -29.89517212 222.5255127 C-34.02292291 223.83998213 -38.15139193 225.15218542 -42.2800293 226.46386719 C-42.96864579 226.68264589 -43.65726229 226.9014246 -44.36674595 227.12683296 C-45.74926944 227.56605781 -47.13179614 228.00527257 -48.5143261 228.44447708 C-50.55405584 229.09249157 -52.59375245 229.74061022 -54.63343811 230.38876343 C-76.30657383 237.27576559 -76.30657383 237.27576559 -85.09793091 240.05038452 C-86.56300469 240.51322323 -88.02775264 240.97709469 -89.49215698 241.44204712 C-91.44835077 242.06299974 -93.40577336 242.68007749 -95.36328125 243.296875 C-96.41813721 243.63041992 -97.47299316 243.96396484 -98.55981445 244.30761719 C-101 245 -101 245 -103 245 C-105.0631792 241.42548451 -107.12615964 237.85085438 -109.18896484 234.27612305 C-109.88910701 233.06287623 -110.58930122 231.84965944 -111.28955078 230.63647461 C-111.62841309 230.04938721 -111.96727539 229.4622998 -112.31640625 228.85742188 C-112.8183551 227.98786362 -112.8183551 227.98786362 -113.33044434 227.10073853 C-114.30936696 225.40361391 -115.28653673 223.70547862 -116.26367188 222.00732422 C-117.29374239 220.22323978 -118.32935912 218.44230859 -119.37695312 216.66845703 C-122 212.20765818 -122 212.20765818 -122 210 C-107.90256813 205.43010738 -93.7508137 201.10721599 -79.51126099 197.00268555 C-73.64499775 195.3115066 -67.78168877 193.61012793 -61.91796875 191.91015625 C-61.28013395 191.72536335 -60.64229916 191.54057045 -59.98513603 191.35017776 C-41.10586521 185.88036956 -22.24426865 180.34998692 -3.38096619 174.82542038 C0.37360309 173.7258514 4.12824359 172.62652571 7.88288403 171.52719975 C17.58876384 168.68539548 27.29446114 165.84296847 37 163 C36.38671825 157.40182764 35.4221516 152.05045455 34.08911133 146.58276367 C33.89661993 145.77795059 33.70412853 144.97313751 33.50580406 144.14393616 C32.86862531 141.48428248 32.22533495 138.82614699 31.58203125 136.16796875 C31.12747965 134.27575482 30.67333095 132.38344407 30.21955872 130.49104309 C29.25509949 126.47220098 28.28804188 122.45399682 27.31890869 118.4362793 C25.80917982 112.17677397 24.30604339 105.91569799 22.80419922 99.65429688 C20.80667555 91.3281739 18.80735589 83.00248537 16.80615234 74.67724609 C13.3683958 60.37443719 9.93403798 46.07084434 6.52304077 31.7616272 C5.63975952 28.06182325 4.75121826 24.3633077 3.86254883 20.66479492 C3.33773407 18.46410607 2.81321757 16.26334606 2.2890625 14.0625 C1.93446709 12.59572563 1.93446709 12.59572563 1.57270813 11.09931946 C1.36260605 10.2118956 1.15250397 9.32447174 0.93603516 8.41015625 C0.75368317 7.64840088 0.57133118 6.88664551 0.38345337 6.10180664 C0 4 0 4 0 0 Z M125 51 C124.54046913 52.72230219 124.08094057 54.444605 123.62142086 56.16691017 C123.19974003 57.74739094 122.77805097 59.32786952 122.35635471 60.90834618 C121.13661083 65.47999981 119.91715793 70.05173083 118.69815063 74.62358093 C116.24015969 83.84151674 113.78079692 93.05907463 111.31431293 102.27474213 C109.93495155 107.42894717 108.55692262 112.58350767 107.1796875 117.73828125 C106.90770224 118.75624535 106.63571697 119.77420944 106.35548973 120.82302094 C103.0865442 133.06672583 99.8681601 145.32053526 96.7578125 157.60546875 C96.17374181 159.89143936 95.58936853 162.17733268 95.00463867 164.46313477 C93.98536098 168.44889136 92.99484852 172.44025165 92.02075195 176.43725586 C89.83365686 185.1634154 87.91896918 191.9186624 81 198 C69.88730625 207.992669 59.34216251 218.52799799 48.79296875 229.109375 C46.97330868 230.93090431 45.15342462 232.75220988 43.33332825 234.57330322 C39.06781726 238.84221473 34.80453574 243.11334052 30.54237968 247.38560128 C25.68082891 252.25842147 20.81635765 257.12832188 15.95166814 261.99800825 C5.96458115 271.99548156 -4.01892795 281.99652178 -14 292 C-9.44762954 293.42438719 -5.78326461 292.13483406 -1.32055664 290.88549805 C-0.44306259 290.64811417 0.43443146 290.41073029 1.33851624 290.16615295 C4.25820746 289.3738393 7.17392234 288.56778581 10.08984375 287.76171875 C12.14759852 287.2004618 14.20559159 286.64007788 16.2638092 286.08052063 C21.71821173 284.59519274 27.16937855 283.09831209 32.61993408 281.59893799 C38.0176157 280.11602787 43.41807848 278.64333212 48.81835938 277.16992188 C50.94399086 276.58932438 53.06961141 276.00868688 55.19522095 275.42800903 C59.4083965 274.27726977 63.62215244 273.12868743 67.83627319 271.98141479 C76.6928208 269.56717028 85.54518113 267.14522157 94.36727428 264.60747433 C97.78282249 263.62658642 101.20267221 262.66127319 104.62314034 261.69770241 C106.18443186 261.25296197 107.74349924 260.80032143 109.29997063 260.33899498 C111.42468821 259.70948803 113.55555746 259.1076281 115.68969727 258.51098633 C117.45833885 257.9975341 117.45833885 257.9975341 119.26271057 257.47370911 C124.20243423 256.84758899 128.21593859 257.78260162 133 259 C133.75041156 259.18520612 134.50082312 259.37041224 135.27397442 259.56123066 C137.55101604 260.13927438 139.81825321 260.74690031 142.08520508 261.36328125 C142.93431458 261.59134964 143.78342407 261.81941803 144.65826416 262.05439758 C147.44618618 262.80404293 150.23285501 263.55823815 153.01953125 264.3125 C155.00160899 264.84646826 156.9837629 265.38015384 158.96598816 265.91357422 C164.19184416 267.32069055 169.41664585 268.73168323 174.64123535 270.14349365 C179.81943087 271.54203897 184.99863686 272.93683075 190.17773438 274.33203125 C193.23764074 275.15674833 196.29751736 275.98157568 199.35738754 276.806427 C201.37887789 277.35126043 203.40041553 277.89591839 205.42200089 278.44039917 C215.10909657 281.04961047 224.79496834 283.66228533 234.4669199 286.32717896 C237.9562067 287.28840898 241.44676739 288.24496584 244.93738365 289.20135498 C247.33333082 289.86031662 249.72704809 290.52697761 252.12080383 291.19384766 C253.54876686 291.5853701 254.9768354 291.97650803 256.4050293 292.3671875 C257.63795212 292.70862793 258.87087494 293.05006836 260.14115906 293.40185547 C262.92938041 294.29402084 262.92938041 294.29402084 265 293 C264.4850038 292.49883069 263.97000759 291.99766138 263.43940544 291.48130512 C250.85082222 279.22548856 238.30518926 266.92729516 225.80457878 254.58176136 C219.75803765 248.61222837 213.6983564 242.65733232 207.60449219 236.73608398 C202.28661677 231.56877153 196.99658355 226.37470178 191.73685944 221.14818686 C188.95635741 218.38706763 186.16469728 215.64020719 183.33916855 212.9251194 C171.08465228 201.12984152 161.46300938 191.11906884 158.52275467 173.79264641 C157.54426349 168.56537627 156.01507028 163.47568508 154.59667969 158.35400391 C153.99380743 156.09407212 153.39415869 153.83327824 152.79754639 151.57168579 C152.491744 150.41496998 152.18594162 149.25825417 151.8708725 148.06648636 C151.55770332 146.88181149 151.24453415 145.69713661 150.921875 144.4765625 C150.26282972 141.98980619 149.60358514 139.50310268 148.94415283 137.01644897 C147.40116188 131.19639891 145.85984706 125.37590784 144.31949162 119.55515993 C141.38956231 108.48372243 138.45569674 97.41332781 135.52158356 86.3429985 C134.56254656 82.72321319 133.60452661 79.1031599 132.64666748 75.48306274 C132.05971424 73.26686026 131.47274026 71.05066327 130.88574219 68.83447266 C130.62183685 67.83599808 130.35793152 66.8375235 130.08602905 65.80879211 C128.77364882 60.85708611 127.42843405 55.91952942 126 51 C125.67 51 125.34 51 125 51 Z " fill="#00ff00" transform="translate(201,56)"/>
</svg>
